<mxfile host="app.diagrams.net" modified="2023-02-27T22:48:33.999Z" agent="5.0 (Windows NT 10.0; Win64; x64) AppleWebKit/537.36 (KHTML, like Gecko) Chrome/110.0.0.0 Safari/537.36 Edg/110.0.1587.57" etag="3nrXCKqyrYypHpjhPKum" version="20.8.23" type="github">
  <diagram name="PÃ¡gina-1" id="mozDX7L71ekQflQ3e5xk">
    <mxGraphModel dx="2390" dy="2496" grid="1" gridSize="10" guides="1" tooltips="1" connect="1" arrows="1" fold="1" page="1" pageScale="1" pageWidth="827" pageHeight="1169" math="0" shadow="0">
      <root>
        <mxCell id="0" />
        <mxCell id="1" parent="0" />
        <mxCell id="6hSDbkAQuoziGBMyBMm--1" value="Pais" style="rounded=0;whiteSpace=wrap;html=1;fillColor=#dae8fc;strokeColor=#6c8ebf;" parent="1" vertex="1">
          <mxGeometry x="630" y="410" width="120" height="60" as="geometry" />
        </mxCell>
        <mxCell id="UE1kqE0h_EwzXXKArM4i-19" style="edgeStyle=orthogonalEdgeStyle;rounded=0;orthogonalLoop=1;jettySize=auto;html=1;exitX=0.5;exitY=1;exitDx=0;exitDy=0;entryX=0.75;entryY=0;entryDx=0;entryDy=0;" edge="1" parent="1" source="6hSDbkAQuoziGBMyBMm--2" target="6hSDbkAQuoziGBMyBMm--1">
          <mxGeometry relative="1" as="geometry" />
        </mxCell>
        <mxCell id="6hSDbkAQuoziGBMyBMm--2" value="Sigla" style="ellipse;whiteSpace=wrap;html=1;rounded=0;" parent="1" vertex="1">
          <mxGeometry x="705" y="360" width="40" height="30" as="geometry" />
        </mxCell>
        <mxCell id="UE1kqE0h_EwzXXKArM4i-18" style="edgeStyle=orthogonalEdgeStyle;rounded=0;orthogonalLoop=1;jettySize=auto;html=1;exitX=0.5;exitY=1;exitDx=0;exitDy=0;entryX=0.25;entryY=0;entryDx=0;entryDy=0;" edge="1" parent="1" source="6hSDbkAQuoziGBMyBMm--5" target="6hSDbkAQuoziGBMyBMm--1">
          <mxGeometry relative="1" as="geometry" />
        </mxCell>
        <mxCell id="6hSDbkAQuoziGBMyBMm--5" value="Nome" style="ellipse;whiteSpace=wrap;html=1;rounded=0;" parent="1" vertex="1">
          <mxGeometry x="640" y="360" width="40" height="30" as="geometry" />
        </mxCell>
        <mxCell id="DYFnLj5vTfCWv4Okl-y0-23" style="edgeStyle=orthogonalEdgeStyle;rounded=0;orthogonalLoop=1;jettySize=auto;html=1;endArrow=none;endFill=0;" parent="1" source="6hSDbkAQuoziGBMyBMm--7" target="DYFnLj5vTfCWv4Okl-y0-22" edge="1">
          <mxGeometry relative="1" as="geometry" />
        </mxCell>
        <mxCell id="DYFnLj5vTfCWv4Okl-y0-27" style="edgeStyle=orthogonalEdgeStyle;rounded=0;orthogonalLoop=1;jettySize=auto;html=1;exitX=0.5;exitY=1;exitDx=0;exitDy=0;endArrow=none;endFill=0;" parent="1" source="6hSDbkAQuoziGBMyBMm--7" target="6hSDbkAQuoziGBMyBMm--11" edge="1">
          <mxGeometry relative="1" as="geometry" />
        </mxCell>
        <mxCell id="DYFnLj5vTfCWv4Okl-y0-28" style="edgeStyle=orthogonalEdgeStyle;rounded=0;orthogonalLoop=1;jettySize=auto;html=1;exitX=0.75;exitY=1;exitDx=0;exitDy=0;entryX=0;entryY=0;entryDx=0;entryDy=0;endArrow=none;endFill=0;" parent="1" source="6hSDbkAQuoziGBMyBMm--7" target="6hSDbkAQuoziGBMyBMm--14" edge="1">
          <mxGeometry relative="1" as="geometry" />
        </mxCell>
        <mxCell id="DYFnLj5vTfCWv4Okl-y0-29" style="edgeStyle=orthogonalEdgeStyle;rounded=0;orthogonalLoop=1;jettySize=auto;html=1;exitX=0.25;exitY=1;exitDx=0;exitDy=0;entryX=1;entryY=0;entryDx=0;entryDy=0;endArrow=none;endFill=0;" parent="1" source="6hSDbkAQuoziGBMyBMm--7" target="6hSDbkAQuoziGBMyBMm--8" edge="1">
          <mxGeometry relative="1" as="geometry" />
        </mxCell>
        <mxCell id="DYFnLj5vTfCWv4Okl-y0-30" style="edgeStyle=orthogonalEdgeStyle;rounded=0;orthogonalLoop=1;jettySize=auto;html=1;exitX=0;exitY=1;exitDx=0;exitDy=0;entryX=0.5;entryY=0;entryDx=0;entryDy=0;endArrow=none;endFill=0;" parent="1" source="6hSDbkAQuoziGBMyBMm--7" target="6hSDbkAQuoziGBMyBMm--16" edge="1">
          <mxGeometry relative="1" as="geometry" />
        </mxCell>
        <mxCell id="6hSDbkAQuoziGBMyBMm--7" value="Copa" style="rounded=0;whiteSpace=wrap;html=1;fillColor=#dae8fc;strokeColor=#6c8ebf;" parent="1" vertex="1">
          <mxGeometry x="90" y="410" width="120" height="60" as="geometry" />
        </mxCell>
        <mxCell id="6hSDbkAQuoziGBMyBMm--8" value="Ano" style="ellipse;whiteSpace=wrap;html=1;rounded=0;" parent="1" vertex="1">
          <mxGeometry x="70" y="500" width="40" height="30" as="geometry" />
        </mxCell>
        <mxCell id="6hSDbkAQuoziGBMyBMm--11" value="DataInicio" style="ellipse;whiteSpace=wrap;html=1;rounded=0;" parent="1" vertex="1">
          <mxGeometry x="115" y="500" width="70" height="30" as="geometry" />
        </mxCell>
        <mxCell id="6hSDbkAQuoziGBMyBMm--14" value="DataFim" style="ellipse;whiteSpace=wrap;html=1;rounded=0;" parent="1" vertex="1">
          <mxGeometry x="200" y="500" width="70" height="30" as="geometry" />
        </mxCell>
        <mxCell id="6hSDbkAQuoziGBMyBMm--16" value="Cidade&amp;nbsp; Abertura" style="ellipse;whiteSpace=wrap;html=1;rounded=0;" parent="1" vertex="1">
          <mxGeometry y="500" width="60" height="35" as="geometry" />
        </mxCell>
        <mxCell id="DYFnLj5vTfCWv4Okl-y0-2" value="" style="edgeStyle=orthogonalEdgeStyle;rounded=0;orthogonalLoop=1;jettySize=auto;html=1;" parent="1" source="6hSDbkAQuoziGBMyBMm--22" target="6hSDbkAQuoziGBMyBMm--27" edge="1">
          <mxGeometry relative="1" as="geometry" />
        </mxCell>
        <mxCell id="DYFnLj5vTfCWv4Okl-y0-3" value="" style="edgeStyle=orthogonalEdgeStyle;rounded=0;orthogonalLoop=1;jettySize=auto;html=1;" parent="1" source="6hSDbkAQuoziGBMyBMm--22" target="6hSDbkAQuoziGBMyBMm--29" edge="1">
          <mxGeometry relative="1" as="geometry" />
        </mxCell>
        <mxCell id="DYFnLj5vTfCWv4Okl-y0-4" value="" style="edgeStyle=orthogonalEdgeStyle;rounded=0;orthogonalLoop=1;jettySize=auto;html=1;" parent="1" source="6hSDbkAQuoziGBMyBMm--22" target="6hSDbkAQuoziGBMyBMm--27" edge="1">
          <mxGeometry relative="1" as="geometry" />
        </mxCell>
        <mxCell id="DYFnLj5vTfCWv4Okl-y0-5" value="" style="edgeStyle=orthogonalEdgeStyle;rounded=0;orthogonalLoop=1;jettySize=auto;html=1;" parent="1" source="6hSDbkAQuoziGBMyBMm--22" target="6hSDbkAQuoziGBMyBMm--26" edge="1">
          <mxGeometry relative="1" as="geometry" />
        </mxCell>
        <mxCell id="6hSDbkAQuoziGBMyBMm--22" value="Pessoas" style="rounded=0;whiteSpace=wrap;html=1;fillColor=#dae8fc;strokeColor=#6c8ebf;" parent="1" vertex="1">
          <mxGeometry x="630" y="855" width="120" height="60" as="geometry" />
        </mxCell>
        <mxCell id="6hSDbkAQuoziGBMyBMm--25" value="" style="edgeStyle=orthogonalEdgeStyle;rounded=0;orthogonalLoop=1;jettySize=auto;html=1;endArrow=none;" parent="1" source="6hSDbkAQuoziGBMyBMm--1" target="6hSDbkAQuoziGBMyBMm--21" edge="1">
          <mxGeometry relative="1" as="geometry">
            <mxPoint x="690" y="470" as="sourcePoint" />
            <mxPoint x="690" y="670" as="targetPoint" />
          </mxGeometry>
        </mxCell>
        <mxCell id="DYFnLj5vTfCWv4Okl-y0-31" style="edgeStyle=orthogonalEdgeStyle;rounded=0;orthogonalLoop=1;jettySize=auto;html=1;exitX=0.5;exitY=1;exitDx=0;exitDy=0;endArrow=none;endFill=0;startArrow=none;" parent="1" source="UE1kqE0h_EwzXXKArM4i-15" target="6hSDbkAQuoziGBMyBMm--22" edge="1">
          <mxGeometry relative="1" as="geometry" />
        </mxCell>
        <mxCell id="6hSDbkAQuoziGBMyBMm--21" value="Equipe" style="rounded=0;whiteSpace=wrap;html=1;fillColor=#dae8fc;strokeColor=#6c8ebf;" parent="1" vertex="1">
          <mxGeometry x="630" y="630" width="120" height="60" as="geometry" />
        </mxCell>
        <mxCell id="6hSDbkAQuoziGBMyBMm--26" value="Codigo" style="ellipse;whiteSpace=wrap;html=1;rounded=0;" parent="1" vertex="1">
          <mxGeometry x="787" y="850" width="40" height="30" as="geometry" />
        </mxCell>
        <mxCell id="6hSDbkAQuoziGBMyBMm--27" value="Nome" style="ellipse;whiteSpace=wrap;html=1;rounded=0;" parent="1" vertex="1">
          <mxGeometry x="550" y="840" width="40" height="30" as="geometry" />
        </mxCell>
        <mxCell id="UE1kqE0h_EwzXXKArM4i-4" value="" style="edgeStyle=orthogonalEdgeStyle;rounded=0;orthogonalLoop=1;jettySize=auto;html=1;" edge="1" parent="1" source="6hSDbkAQuoziGBMyBMm--28" target="6hSDbkAQuoziGBMyBMm--22">
          <mxGeometry relative="1" as="geometry" />
        </mxCell>
        <mxCell id="6hSDbkAQuoziGBMyBMm--28" value="DataNascimento" style="ellipse;whiteSpace=wrap;html=1;rounded=0;" parent="1" vertex="1">
          <mxGeometry x="510" y="880" width="100" height="45" as="geometry" />
        </mxCell>
        <mxCell id="6hSDbkAQuoziGBMyBMm--29" value="PaisNascimento" style="ellipse;whiteSpace=wrap;html=1;rounded=0;" parent="1" vertex="1">
          <mxGeometry x="760" y="915" width="100" height="40" as="geometry" />
        </mxCell>
        <mxCell id="DYFnLj5vTfCWv4Okl-y0-9" value="" style="edgeStyle=orthogonalEdgeStyle;rounded=0;orthogonalLoop=1;jettySize=auto;html=1;" parent="1" source="DYFnLj5vTfCWv4Okl-y0-6" target="DYFnLj5vTfCWv4Okl-y0-8" edge="1">
          <mxGeometry relative="1" as="geometry" />
        </mxCell>
        <mxCell id="DYFnLj5vTfCWv4Okl-y0-10" value="" style="edgeStyle=orthogonalEdgeStyle;rounded=0;orthogonalLoop=1;jettySize=auto;html=1;" parent="1" source="DYFnLj5vTfCWv4Okl-y0-6" target="DYFnLj5vTfCWv4Okl-y0-7" edge="1">
          <mxGeometry relative="1" as="geometry" />
        </mxCell>
        <mxCell id="DYFnLj5vTfCWv4Okl-y0-13" value="" style="edgeStyle=orthogonalEdgeStyle;rounded=0;orthogonalLoop=1;jettySize=auto;html=1;" parent="1" source="DYFnLj5vTfCWv4Okl-y0-6" target="DYFnLj5vTfCWv4Okl-y0-12" edge="1">
          <mxGeometry relative="1" as="geometry" />
        </mxCell>
        <mxCell id="DYFnLj5vTfCWv4Okl-y0-15" value="" style="edgeStyle=orthogonalEdgeStyle;rounded=0;orthogonalLoop=1;jettySize=auto;html=1;" parent="1" source="DYFnLj5vTfCWv4Okl-y0-6" target="DYFnLj5vTfCWv4Okl-y0-14" edge="1">
          <mxGeometry relative="1" as="geometry" />
        </mxCell>
        <mxCell id="DYFnLj5vTfCWv4Okl-y0-17" value="" style="edgeStyle=orthogonalEdgeStyle;rounded=0;orthogonalLoop=1;jettySize=auto;html=1;" parent="1" source="DYFnLj5vTfCWv4Okl-y0-6" target="DYFnLj5vTfCWv4Okl-y0-16" edge="1">
          <mxGeometry relative="1" as="geometry" />
        </mxCell>
        <mxCell id="DYFnLj5vTfCWv4Okl-y0-19" value="" style="edgeStyle=orthogonalEdgeStyle;rounded=0;orthogonalLoop=1;jettySize=auto;html=1;" parent="1" source="DYFnLj5vTfCWv4Okl-y0-6" target="DYFnLj5vTfCWv4Okl-y0-18" edge="1">
          <mxGeometry relative="1" as="geometry" />
        </mxCell>
        <mxCell id="DYFnLj5vTfCWv4Okl-y0-21" value="" style="edgeStyle=orthogonalEdgeStyle;rounded=0;orthogonalLoop=1;jettySize=auto;html=1;" parent="1" source="DYFnLj5vTfCWv4Okl-y0-6" target="DYFnLj5vTfCWv4Okl-y0-20" edge="1">
          <mxGeometry relative="1" as="geometry" />
        </mxCell>
        <mxCell id="DYFnLj5vTfCWv4Okl-y0-6" value="Jogos" style="rounded=0;whiteSpace=wrap;html=1;fillColor=#dae8fc;strokeColor=#6c8ebf;" parent="1" vertex="1">
          <mxGeometry x="85" y="70" width="120" height="60" as="geometry" />
        </mxCell>
        <mxCell id="DYFnLj5vTfCWv4Okl-y0-7" value="Estadio" style="ellipse;whiteSpace=wrap;html=1;rounded=0;" parent="1" vertex="1">
          <mxGeometry x="35" y="10" width="100" height="40" as="geometry" />
        </mxCell>
        <mxCell id="DYFnLj5vTfCWv4Okl-y0-8" value="Data" style="ellipse;whiteSpace=wrap;html=1;rounded=0;" parent="1" vertex="1">
          <mxGeometry x="205" y="10" width="40" height="30" as="geometry" />
        </mxCell>
        <mxCell id="DYFnLj5vTfCWv4Okl-y0-12" value="Hora" style="ellipse;whiteSpace=wrap;html=1;rounded=0;" parent="1" vertex="1">
          <mxGeometry x="235" y="50" width="40" height="30" as="geometry" />
        </mxCell>
        <mxCell id="DYFnLj5vTfCWv4Okl-y0-14" value="Equipe1" style="ellipse;whiteSpace=wrap;html=1;rounded=0;" parent="1" vertex="1">
          <mxGeometry x="20" y="60" width="60" height="30" as="geometry" />
        </mxCell>
        <mxCell id="DYFnLj5vTfCWv4Okl-y0-16" value="Equipe2" style="ellipse;whiteSpace=wrap;html=1;rounded=0;" parent="1" vertex="1">
          <mxGeometry x="230" y="80" width="60" height="30" as="geometry" />
        </mxCell>
        <mxCell id="DYFnLj5vTfCWv4Okl-y0-18" value="GolEquipe1" style="ellipse;whiteSpace=wrap;html=1;rounded=0;" parent="1" vertex="1">
          <mxGeometry x="85" y="-30" width="75" height="30" as="geometry" />
        </mxCell>
        <mxCell id="DYFnLj5vTfCWv4Okl-y0-20" value="GolEquipe2" style="ellipse;whiteSpace=wrap;html=1;rounded=0;" parent="1" vertex="1">
          <mxGeometry x="160" y="-20" width="75" height="30" as="geometry" />
        </mxCell>
        <mxCell id="DYFnLj5vTfCWv4Okl-y0-22" value="Relationship" style="shape=rhombus;perimeter=rhombusPerimeter;whiteSpace=wrap;html=1;align=center;fillColor=#fff2cc;strokeColor=#d6b656;" parent="1" vertex="1">
          <mxGeometry x="354" y="410" width="120" height="60" as="geometry" />
        </mxCell>
        <mxCell id="DYFnLj5vTfCWv4Okl-y0-24" style="edgeStyle=orthogonalEdgeStyle;rounded=0;orthogonalLoop=1;jettySize=auto;html=1;endArrow=none;endFill=0;" parent="1" target="6hSDbkAQuoziGBMyBMm--1" edge="1">
          <mxGeometry relative="1" as="geometry">
            <mxPoint x="450" y="439.5" as="sourcePoint" />
            <mxPoint x="570" y="439.5" as="targetPoint" />
          </mxGeometry>
        </mxCell>
        <mxCell id="DYFnLj5vTfCWv4Okl-y0-33" value="Treinador" style="rounded=0;whiteSpace=wrap;html=1;fillColor=#dae8fc;strokeColor=#6c8ebf;" parent="1" vertex="1">
          <mxGeometry x="500" y="1080" width="120" height="60" as="geometry" />
        </mxCell>
        <mxCell id="DYFnLj5vTfCWv4Okl-y0-34" value="Jogador" style="rounded=0;whiteSpace=wrap;html=1;fillColor=#dae8fc;strokeColor=#6c8ebf;" parent="1" vertex="1">
          <mxGeometry x="750" y="1080" width="120" height="60" as="geometry" />
        </mxCell>
        <mxCell id="UE1kqE0h_EwzXXKArM4i-2" style="edgeStyle=orthogonalEdgeStyle;rounded=0;orthogonalLoop=1;jettySize=auto;html=1;" edge="1" parent="1" source="UE1kqE0h_EwzXXKArM4i-1" target="6hSDbkAQuoziGBMyBMm--7">
          <mxGeometry relative="1" as="geometry" />
        </mxCell>
        <mxCell id="UE1kqE0h_EwzXXKArM4i-3" style="edgeStyle=orthogonalEdgeStyle;rounded=0;orthogonalLoop=1;jettySize=auto;html=1;entryX=0.5;entryY=1;entryDx=0;entryDy=0;" edge="1" parent="1" source="UE1kqE0h_EwzXXKArM4i-1" target="DYFnLj5vTfCWv4Okl-y0-6">
          <mxGeometry relative="1" as="geometry">
            <mxPoint x="150" y="150" as="targetPoint" />
          </mxGeometry>
        </mxCell>
        <mxCell id="UE1kqE0h_EwzXXKArM4i-1" value="Relationship" style="shape=rhombus;perimeter=rhombusPerimeter;whiteSpace=wrap;html=1;align=center;fillColor=#fff2cc;strokeColor=#d6b656;" vertex="1" parent="1">
          <mxGeometry x="90" y="220" width="120" height="60" as="geometry" />
        </mxCell>
        <mxCell id="UE1kqE0h_EwzXXKArM4i-6" value="" style="edgeStyle=orthogonalEdgeStyle;rounded=0;orthogonalLoop=1;jettySize=auto;html=1;" edge="1" parent="1" source="UE1kqE0h_EwzXXKArM4i-5" target="6hSDbkAQuoziGBMyBMm--22">
          <mxGeometry relative="1" as="geometry" />
        </mxCell>
        <mxCell id="UE1kqE0h_EwzXXKArM4i-7" style="edgeStyle=orthogonalEdgeStyle;rounded=0;orthogonalLoop=1;jettySize=auto;html=1;exitX=0;exitY=0.25;exitDx=0;exitDy=0;entryX=0.5;entryY=0;entryDx=0;entryDy=0;" edge="1" parent="1" source="UE1kqE0h_EwzXXKArM4i-5" target="DYFnLj5vTfCWv4Okl-y0-33">
          <mxGeometry relative="1" as="geometry" />
        </mxCell>
        <mxCell id="UE1kqE0h_EwzXXKArM4i-8" style="edgeStyle=orthogonalEdgeStyle;rounded=0;orthogonalLoop=1;jettySize=auto;html=1;exitX=0;exitY=0.75;exitDx=0;exitDy=0;" edge="1" parent="1" source="UE1kqE0h_EwzXXKArM4i-5" target="DYFnLj5vTfCWv4Okl-y0-34">
          <mxGeometry relative="1" as="geometry" />
        </mxCell>
        <mxCell id="UE1kqE0h_EwzXXKArM4i-5" value="" style="triangle;whiteSpace=wrap;html=1;direction=north;" vertex="1" parent="1">
          <mxGeometry x="650" y="970" width="80" height="60" as="geometry" />
        </mxCell>
        <mxCell id="UE1kqE0h_EwzXXKArM4i-10" value="P" style="text;html=1;align=center;verticalAlign=middle;resizable=0;points=[];autosize=1;strokeColor=none;fillColor=none;" vertex="1" parent="1">
          <mxGeometry x="710" y="970" width="30" height="30" as="geometry" />
        </mxCell>
        <mxCell id="UE1kqE0h_EwzXXKArM4i-11" value="(1,N)" style="text;html=1;align=center;verticalAlign=middle;resizable=0;points=[];autosize=1;strokeColor=none;fillColor=none;" vertex="1" parent="1">
          <mxGeometry x="215" y="395" width="50" height="30" as="geometry" />
        </mxCell>
        <mxCell id="UE1kqE0h_EwzXXKArM4i-12" value="(1,N)" style="text;html=1;align=center;verticalAlign=middle;resizable=0;points=[];autosize=1;strokeColor=none;fillColor=none;" vertex="1" parent="1">
          <mxGeometry x="570" y="400" width="50" height="30" as="geometry" />
        </mxCell>
        <mxCell id="UE1kqE0h_EwzXXKArM4i-13" value="(1,1)" style="text;html=1;align=center;verticalAlign=middle;resizable=0;points=[];autosize=1;strokeColor=none;fillColor=none;" vertex="1" parent="1">
          <mxGeometry x="95" y="360" width="50" height="30" as="geometry" />
        </mxCell>
        <mxCell id="UE1kqE0h_EwzXXKArM4i-14" value="(1,N)" style="text;html=1;align=center;verticalAlign=middle;resizable=0;points=[];autosize=1;strokeColor=none;fillColor=none;" vertex="1" parent="1">
          <mxGeometry x="160" y="140" width="50" height="30" as="geometry" />
        </mxCell>
        <mxCell id="UE1kqE0h_EwzXXKArM4i-16" value="" style="edgeStyle=orthogonalEdgeStyle;rounded=0;orthogonalLoop=1;jettySize=auto;html=1;exitX=0.5;exitY=1;exitDx=0;exitDy=0;endArrow=none;endFill=0;" edge="1" parent="1" source="6hSDbkAQuoziGBMyBMm--21" target="UE1kqE0h_EwzXXKArM4i-15">
          <mxGeometry relative="1" as="geometry">
            <mxPoint x="690" y="690" as="sourcePoint" />
            <mxPoint x="690" y="855" as="targetPoint" />
          </mxGeometry>
        </mxCell>
        <mxCell id="UE1kqE0h_EwzXXKArM4i-15" value="Relationship" style="shape=rhombus;perimeter=rhombusPerimeter;whiteSpace=wrap;html=1;align=center;fillColor=#fff2cc;strokeColor=#d6b656;" vertex="1" parent="1">
          <mxGeometry x="630" y="740" width="120" height="60" as="geometry" />
        </mxCell>
        <mxCell id="UE1kqE0h_EwzXXKArM4i-17" value="Relationship" style="shape=rhombus;perimeter=rhombusPerimeter;whiteSpace=wrap;html=1;align=center;fillColor=#fff2cc;strokeColor=#d6b656;" vertex="1" parent="1">
          <mxGeometry x="630" y="540" width="120" height="60" as="geometry" />
        </mxCell>
        <mxCell id="UE1kqE0h_EwzXXKArM4i-20" value="(1,1)" style="text;html=1;align=center;verticalAlign=middle;resizable=0;points=[];autosize=1;strokeColor=none;fillColor=none;" vertex="1" parent="1">
          <mxGeometry x="695" y="490" width="50" height="30" as="geometry" />
        </mxCell>
        <mxCell id="UE1kqE0h_EwzXXKArM4i-21" value="(1,1)" style="text;html=1;align=center;verticalAlign=middle;resizable=0;points=[];autosize=1;strokeColor=none;fillColor=none;" vertex="1" parent="1">
          <mxGeometry x="695" y="600" width="50" height="30" as="geometry" />
        </mxCell>
        <mxCell id="UE1kqE0h_EwzXXKArM4i-22" value="(1,1)" style="text;html=1;align=center;verticalAlign=middle;resizable=0;points=[];autosize=1;strokeColor=none;fillColor=none;" vertex="1" parent="1">
          <mxGeometry x="700" y="690" width="50" height="30" as="geometry" />
        </mxCell>
        <mxCell id="UE1kqE0h_EwzXXKArM4i-23" value="(1,N)" style="text;html=1;align=center;verticalAlign=middle;resizable=0;points=[];autosize=1;strokeColor=none;fillColor=none;" vertex="1" parent="1">
          <mxGeometry x="695" y="825" width="50" height="30" as="geometry" />
        </mxCell>
      </root>
    </mxGraphModel>
  </diagram>
</mxfile>
